<?xml version="1.0" encoding="utf-8"?>
<!-- Generator: Adobe Illustrator 23.0.1, SVG Export Plug-In . SVG Version: 6.00 Build 0)  -->
<svg version="1.1" id="Ebene_1" focusable="false" xmlns="http://www.w3.org/2000/svg" xmlns:xlink="http://www.w3.org/1999/xlink"
	 x="0px" y="0px" viewBox="0 0 512 512" style="enable-background:new 0 0 512 512;" xml:space="preserve">
<path d="M464,384c26.5,0,48-21.5,48-48V112c0-26.5-21.5-48-48-48H272L208,0H48C21.5,0,0,21.5,0,48v288c0,26.5,21.5,48,48,48h188.1
	l0,16.9c-16.5,5.6-29.7,17.9-35.9,33.4H21.6c-11,0-20,9-20,20s9,20,20,20h178.5c8.5,21.4,30.3,36.7,55.8,36.7s47.3-15.3,55.8-36.7
	h176.4c11,0,20-9,20-20s-9-20-20-20H311.8c-6.2-15.5-19.3-27.8-35.7-33.4l0-17H464z"/>
</svg>
